<svg id="Layer_1" data-name="Layer 1" xmlns="http://www.w3.org/2000/svg" xmlns:xlink="http://www.w3.org/1999/xlink" viewBox="0 0 100 100"><defs><style>.cls-1{fill:#191919;}.cls-2{fill:url(#linear-gradient);}.cls-3{fill:url(#linear-gradient-2);}.cls-4{fill:url(#linear-gradient-3);}</style><linearGradient id="linear-gradient" x1="5" y1="50" x2="95" y2="50" gradientUnits="userSpaceOnUse"><stop offset="0" stop-color="#f5e587"/><stop offset="0.01" stop-color="#f4e284"/><stop offset="0.11" stop-color="#eac868"/><stop offset="0.2" stop-color="#e4b957"/><stop offset="0.26" stop-color="#e2b351"/><stop offset="0.39" stop-color="#e7bf5e"/><stop offset="0.61" stop-color="#f3df81"/><stop offset="0.65" stop-color="#f5e587"/><stop offset="1" stop-color="#e2b351"/></linearGradient><linearGradient id="linear-gradient-2" x1="18.51" y1="47.46" x2="48.33" y2="48.76" gradientUnits="userSpaceOnUse"><stop offset="0" stop-color="#e2b351"/><stop offset="0.14" stop-color="#eac868"/><stop offset="0.32" stop-color="#f2dd7f"/><stop offset="0.44" stop-color="#f5e587"/><stop offset="0.61" stop-color="#f1da7b"/><stop offset="0.92" stop-color="#e5bb5a"/><stop offset="1" stop-color="#e2b351"/></linearGradient><linearGradient id="linear-gradient-3" x1="21.76" y1="55.95" x2="63.87" y2="58.64" gradientUnits="userSpaceOnUse"><stop offset="0.08" stop-color="#e2b351"/><stop offset="0.09" stop-color="#e5bb5a"/><stop offset="0.14" stop-color="#ecce6e"/><stop offset="0.2" stop-color="#f1db7c"/><stop offset="0.27" stop-color="#f4e384"/><stop offset="0.38" stop-color="#f5e587"/><stop offset="0.48" stop-color="#f2dd7e"/><stop offset="0.63" stop-color="#e9c666"/><stop offset="0.74" stop-color="#e2b351"/><stop offset="1" stop-color="#f5e587"/></linearGradient></defs><rect class="cls-1" width="100" height="100" rx="50"/><path class="cls-2" d="M50,5A45,45,0,1,0,95,50,45,45,0,0,0,50,5Zm0,86.77A41.33,41.33,0,1,1,91.77,50.45,41.55,41.55,0,0,1,50,91.77Z"/><path class="cls-3" d="M22.77,14.17s-6.65,5.71-.56,15.75C26.16,36.19,30,42.68,34.47,48.56A74.64,74.64,0,0,1,47.81,75.1a74.09,74.09,0,0,1,2.33,15s3.35-1.91,3.19-12a49.22,49.22,0,0,0-3.26-15.61,103.6,103.6,0,0,0-6.18-14.42c-2.32-4.28-4.8-8.61-7-13C34.69,30.94,32,26.34,32.19,21.5c.3-7.6,7.81-10.83,14.32-12,.36-.07,1.79-.52,2.07-.33C48.58,9.15,38.28,2.26,22.77,14.17Z"/><path class="cls-4" d="M23.24,31.35s-1,1-1.1,1.06A14.09,14.09,0,0,0,19.89,36c-2.38,5.4-2.31,12.92,2.19,17.19,3.58,3.38,8.88,3.66,13.43,2.39a20.1,20.1,0,0,0,6.84-3.5,50,50,0,0,0,9.74-10.78c2.76-3.91,5.22-8.09,8.94-11.2A14.09,14.09,0,0,1,72.59,26.9a11.69,11.69,0,0,1,9.86,11.59c.11,4.37-1.55,8.65-3.4,12.54-3.55,7.44-8.83,14-13.82,20.56-4.83,6.33-9.82,12.55-15.09,18.52,0,0-1,0,5.37-11.16l9.12-17.16a79.68,79.68,0,0,0,6.64-15.18c1.19-4.13,2.28-9.14,1-13.38a6,6,0,0,0-3.41-4c-2-.68-4.37.33-6.06,1.42-3.78,2.44-6,6.44-8.53,10A116.65,116.65,0,0,1,44.49,52.2a21.48,21.48,0,0,1-11.31,5.49A14.15,14.15,0,0,1,22.7,55.25a11.94,11.94,0,0,1-4.84-7.36,23.08,23.08,0,0,1,4.58-18.28Z"/></svg>